<svg width="40" height="46" viewBox="0 0 40 46" fill="none" xmlns="http://www.w3.org/2000/svg">
<path d="M2.34221 14.0472C1.65138 17.2387 0.739541 27.8217 0.953692 40.37C1.09069 48.3973 20.0404 42.6047 32.2329 40.7741C42.9708 39.1619 35.9563 23.0552 35.7352 6.05127C35.6921 2.73533 34.3675 2.53857 33.4418 2.30716C29.538 1.33121 23.7914 0.922104 18.7244 1.71997C13.7446 2.50412 18.4584 9.66068 18.006 11.6156C16.7816 16.9054 8.80803 14.5031 5.11918 14.51C4.16586 14.5118 3.28168 13.8262 3.26786 13.0214C6.0172 9.21857 9.00835 6.91821 11.4192 4.85274C12.6903 3.69911 14.0581 2.33133 16.8489 0.922104" stroke="#00FFA9" stroke-width="1.84381" stroke-linecap="round"/>
<path d="M10.6318 20.9552C11.0878 20.9552 11.5437 20.9552 13.9442 20.9552C16.3447 20.9552 20.676 20.9552 23.3632 20.8412C26.0504 20.7272 26.9622 20.4993 27.9017 20.2644" stroke="#00FFA9" stroke-width="1.84381" stroke-linecap="round"/>
<path d="M12.0133 25.0999H27.9016" stroke="#00FFA9" stroke-width="1.84381" stroke-linecap="round"/>
<path d="M12.0133 28.5539C12.4692 28.7819 12.9252 29.0098 14.0719 29.2412C15.2186 29.4727 17.0423 29.7006 19.5775 29.8181C22.1127 29.9355 25.3042 29.9355 28.5924 29.2447" stroke="#00FFA9" stroke-width="1.84381" stroke-linecap="round"/>
</svg>
