<svg width="153" height="125" viewBox="0 0 153 125" fill="none" xmlns="http://www.w3.org/2000/svg">
<path d="M79.8928 17.341C77.1682 21.9626 70.4257 31.8784 66.7562 46.1143C65.9303 49.3187 66.1324 50.8014 66.7379 51.9764C69.2237 56.8007 76.4985 57.8079 83.3833 58.6903C89.7891 59.5113 95.7631 60.7259 104.937 60.3022C110.875 60.0279 107.414 36.9979 105.744 25.3698C104.6 17.4047 90.0204 18.2321 84.0438 17.0527C80.2157 16.2973 76.5444 15.3055 74.8565 14.1479C69.8294 10.7003 84.7548 6.5778 89.9608 3.52007C99.2189 -1.91762 109.835 2.76874 115.495 5.24551C120.939 7.6275 131.485 15.8209 143.461 28.0693C153.741 38.5834 151.447 49.3511 150.69 53.7106C149.315 61.6275 135.32 64.7796 129.435 69.0167C124.855 72.3138 136.439 80.7846 141.181 90.53C150.346 109.361 149.3 116.333 149.763 119.823C149.958 121.29 148.713 122.16 147.034 122.75C143.091 124.135 126.513 123.925 105.414 122.339C98.0721 121.787 98.2399 117.582 98.3913 115.228C98.9726 106.186 98.8546 96.8596 98.2445 93.662C97.9636 92.1896 97.6345 91.0411 97.4786 93.7625C96.4862 111.08 96.4052 114.883 95.9511 117.643C95.7255 119.015 94.5889 120.116 92.7587 120.854C77.0077 127.208 51.8033 121.601 45.3589 119.718C43.3776 119.14 43.2168 114.961 42.749 112.463C42.2811 109.964 42.2811 108.234 44.5516 107.343C57.1475 102.4 64.5821 107.326 67.7928 106.028C75.5666 102.887 66.7562 92.2118 66.4352 78.5481C69.178 72.1007 72.8475 69.1827 76.6499 67.4442C79.2415 66.2822 83.1769 64.5524 89.9837 61.0229" stroke="currentColor" stroke-width="2" stroke-linecap="round"/>
<path d="M47.7853 109.073C45.0516 108.496 37.731 106.173 31.4471 104.709C30.0689 104.388 28.851 104.128 28.0759 104.845C26.0768 106.692 26.9888 110.803 28.0529 114C32.4837 118.098 36.1532 118.971 38.5933 119.408C39.8226 119.557 41.0335 119.557 43.1985 117.809" stroke="currentColor" stroke-width="2" stroke-linecap="round"/>
<path d="M16.5951 116.062C20.8608 117.801 30.594 121.286 37.5246 121.601C38.7595 121.657 39.5107 119.871 39.9785 118.701C40.4464 117.53 40.4464 116.377 39.8409 115.638C38.0246 114.612 35.566 114.027 33.1259 113.446C31.8966 113.153 30.6857 112.865 28.5207 112.568" stroke="currentColor" stroke-width="2" stroke-linecap="round"/>
<path d="M1.91734 107.326C2.52281 105.596 3.13745 102.687 3.74748 99.0524C4.21651 96.2582 4.66944 75.4904 4.51808 44.9218C4.43917 28.9876 4.35753 23.1944 4.97217 17.0746C5.35884 13.2245 7.41232 10.3607 9.39383 8.90605C13.6934 5.74977 19.9434 8.89295 22.6909 10.0505C28.5944 12.5378 28.5024 23.9807 30.9609 42.445C32.8175 56.389 30.6673 65.6707 28.9931 67.7063C25.361 72.1225 18.76 70.6329 14.9393 71.2095C9.98763 71.9568 11.0909 81.6582 8.04531 95.916C6.67364 102.337 5.58679 105.858 6.34361 107.894C7.2578 110.352 11.0818 110.812 12.7605 113.131C13.7314 114.473 14.1366 116.604 14.2971 118.22C14.4576 119.836 14.1549 120.989 12.4853 121.584C10.8157 122.178 7.78846 122.178 5.92622 121.169C2.53199 114.332 1.61462 109.667 1.15595 106.911C1 105.308 1 103.29 1 101.21" stroke="currentColor" stroke-width="2" stroke-linecap="round"/>
<path d="M23.934 19.0883C21.7966 22.8537 20.5765 45.4023 23.6129 54.6235C25.7687 44.1879 25.466 31.9133 25.0073 29.3011C24.8513 27.8422 24.8513 26.1124 23.0167 21.7092" stroke="currentColor" stroke-width="2" stroke-linecap="round"/>
<path d="M85.3969 30.4456C85.6996 30.4456 86.0023 30.4456 86.7637 30.4456C87.5251 30.4456 88.736 30.4456 89.9653 30.5898C91.1946 30.7339 92.4055 31.0222 93.6531 31.3192" stroke="currentColor" stroke-width="2" stroke-linecap="round"/>
<path d="M77.1406 40.9292H84.4795" stroke="currentColor" stroke-width="2" stroke-linecap="round"/>
</svg>
