<svg width="58" height="58" viewBox="0 0 58 58" fill="none" xmlns="http://www.w3.org/2000/svg">
<path d="M29.9281 8.2821C28.9263 10.3638 26.4473 14.8301 25.0982 21.2424C24.7945 22.6857 24.8688 23.3536 25.0915 23.8828C26.0054 26.0558 28.6801 26.5095 31.2114 26.907C33.5666 27.2768 35.763 27.8239 39.1358 27.633C41.3192 27.5095 40.0465 17.1361 39.4326 11.8985C39.0122 8.3108 33.6516 8.68349 31.4542 8.15225C30.0468 7.81198 28.697 7.36523 28.0764 6.84382C26.2281 5.29094 31.7156 3.43404 33.6297 2.05676C37.0336 -0.392531 40.9369 1.71834 43.0179 2.83394C45.0193 3.90685 48.8967 7.59739 53.2999 13.1144C57.0797 17.8503 56.2359 22.7003 55.9577 24.664C55.4524 28.23 50.3066 29.6497 48.1429 31.5583C46.4593 33.0434 50.718 36.8589 52.4618 41.2485C55.8311 49.7303 55.4467 52.8708 55.617 54.4429C55.6886 55.1035 55.2309 55.4956 54.6136 55.7612C53.1638 56.3851 47.0687 56.2904 39.3112 55.5762C36.612 55.3277 36.6737 53.4336 36.7293 52.373C36.943 48.3005 36.8996 44.0995 36.6754 42.6592C36.5721 41.996 36.4511 41.4787 36.3937 42.7045C36.0289 50.5046 35.9991 52.2176 35.8321 53.4611C35.7492 54.0789 35.3313 54.5747 34.6584 54.9073C28.8673 57.7691 19.6005 55.2437 17.2311 54.3957C16.5027 54.135 16.4436 52.253 16.2716 51.1276C16.0995 50.0021 16.0995 49.223 16.9343 48.8216C21.5654 46.5948 24.2988 48.8137 25.4793 48.2294C28.3374 46.8145 25.0982 42.006 24.9801 35.8515C25.9886 32.9474 27.3377 31.6331 28.7358 30.85C29.6886 30.3266 31.1355 29.5474 33.6381 27.9577" stroke="#00FFA9" stroke-width="1.84381" stroke-linecap="round"/>
<path d="M18.1232 49.6007C17.1181 49.341 14.4266 48.2943 12.1162 47.6352C11.6095 47.4906 11.1617 47.3735 10.8767 47.6962C10.1418 48.5283 10.4771 50.3799 10.8683 51.8202C12.4974 53.6657 13.8465 54.0592 14.7437 54.256C15.1956 54.3229 15.6408 54.3229 16.4368 53.5359" stroke="#00FFA9" stroke-width="1.84381" stroke-linecap="round"/>
<path d="M6.65564 52.7489C8.22399 53.5319 11.8025 55.102 14.3507 55.2437C14.8047 55.2689 15.0809 54.4646 15.2529 53.9373C15.4249 53.4099 15.4249 52.8905 15.2023 52.558C14.5345 52.0956 13.6306 51.832 12.7334 51.5703C12.2815 51.4385 11.8363 51.3086 11.0403 51.1748" stroke="#00FFA9" stroke-width="1.84381" stroke-linecap="round"/>
<path d="M1.25915 48.8137C1.48176 48.0346 1.70774 46.7242 1.93203 45.0872C2.10448 43.8286 2.271 34.4742 2.21535 20.7052C2.18634 13.528 2.15632 10.9186 2.3823 8.16208C2.52447 6.42789 3.27947 5.13796 4.008 4.48275C5.58878 3.06107 7.88673 4.47685 8.89688 4.99825C11.0674 6.11859 11.0335 11.2728 11.9375 19.5896C12.6201 25.8704 11.8295 30.0511 11.214 30.968C9.87857 32.9572 7.45163 32.2863 6.04686 32.546C4.22632 32.8826 4.63196 37.2524 3.51219 43.6745C3.00788 46.5668 2.60828 48.1526 2.88654 49.0695C3.22265 50.1771 4.62859 50.3838 5.24581 51.4286C5.60277 52.0328 5.75173 52.9928 5.81076 53.7208C5.86978 54.4488 5.75848 54.9682 5.14463 55.2358C4.53078 55.5034 3.41776 55.5034 2.73308 55.0489C1.48513 51.9697 1.14785 49.8683 0.979212 48.6268C0.921875 47.9047 0.921875 46.9957 0.921875 46.0592" stroke="#00FFA9" stroke-width="1.84381" stroke-linecap="round"/>
<path d="M9.35401 9.06911C8.56814 10.7652 8.11956 20.9217 9.23596 25.0752C10.0286 20.3747 9.91727 14.8459 9.74862 13.6693C9.69128 13.0121 9.69128 12.233 9.01673 10.2497" stroke="#00FFA9" stroke-width="1.84381" stroke-linecap="round"/>
<path d="M31.9517 14.1848C32.063 14.1848 32.1743 14.1848 32.4542 14.1848C32.7341 14.1848 33.1794 14.1848 33.6313 14.2497C34.0833 14.3146 34.5285 14.4445 34.9872 14.5783" stroke="#00FFA9" stroke-width="1.84381" stroke-linecap="round"/>
<path d="M28.9161 18.9069H31.6144" stroke="#00FFA9" stroke-width="1.84381" stroke-linecap="round"/>
</svg>
